# xmcd CD database file
#
# Track frame offsets:
#	150
#	17168
#	29042
#	46858
#	60864
#	76267
#	89848
#	141784
#	156929
#	171917
#	181913
#	197090
#	210667
#	226970
#	240712
#
# Disc length: 3781 seconds
#
# Revision: 0
# Processed by: cddbd v1.5.2PL0 Copyright (c) Steve Scherf et al.
# Submitted via: CDex 1.70beta2
#
DISCID=c70ec30f
DTITLE=Různý - Na country svatbě
DYEAR=2010
DGENRE=Country
TTITLE0=Vnimam
TTITLE1=Kavarna Slavie
TTITLE2=Morytat o rezniku Peroutkovi
TTITLE3=Partiturou proplouvam
TTITLE4=Harley
TTITLE5=Az te uvidim
TTITLE6=Smes 1
TTITLE7=Mam rada desperada
TTITLE8=Ted uz vim
TTITLE9=Laska je vec kouzelna
TTITLE10=Stary mlyn
TTITLE11=Laska na strunach
TTITLE12=Nalej panaka
TTITLE13=Co se jen muze stat
TTITLE14=Smes 2
EXTD=YEAR: 2010
EXTT0=
EXTT1=
EXTT2=
EXTT3=
EXTT4=
EXTT5=
EXTT6=
EXTT7=
EXTT8=
EXTT9=
EXTT10=
EXTT11=
EXTT12=
EXTT13=
EXTT14=
PLAYORDER=
